<svg width="20" height="20" viewBox="0 0 20 20" fill="none" xmlns="http://www.w3.org/2000/svg">
<g id="icon / gps" clip-path="url(#clip0_365_321)">
<g id="icon">
<path fill-rule="evenodd" clip-rule="evenodd" d="M10 6.66665C8.15909 6.66665 6.66671 8.15903 6.66671 9.99998C6.66671 11.8409 8.15909 13.3333 10 13.3333C11.841 13.3333 13.3334 11.8409 13.3334 9.99998C13.3334 8.15903 11.841 6.66665 10 6.66665ZM8.33337 9.99998C8.33337 9.0795 9.07957 8.33331 10 8.33331C10.9205 8.33331 11.6667 9.0795 11.6667 9.99998C11.6667 10.9205 10.9205 11.6666 10 11.6666C9.07957 11.6666 8.33337 10.9205 8.33337 9.99998Z" fill="white"/>
<path fill-rule="evenodd" clip-rule="evenodd" d="M10 0.833313C10.4603 0.833313 10.8334 1.20641 10.8334 1.66665V2.54575C14.3097 2.93004 17.07 5.6903 17.4543 9.16665H18.3334C18.7936 9.16665 19.1667 9.53974 19.1667 9.99998C19.1667 10.4602 18.7936 10.8333 18.3334 10.8333H17.4543C17.07 14.3097 14.3097 17.0699 10.8334 17.4542V18.3333C10.8334 18.7935 10.4603 19.1666 10 19.1666C9.5398 19.1666 9.16671 18.7935 9.16671 18.3333V17.4542C5.69036 17.0699 2.9301 14.3097 2.54581 10.8333H1.66671C1.20647 10.8333 0.833374 10.4602 0.833374 9.99998C0.833374 9.53974 1.20647 9.16665 1.66671 9.16665H2.54581C2.9301 5.6903 5.69036 2.93004 9.16671 2.54575V1.66665C9.16671 1.20641 9.5398 0.833313 10 0.833313ZM15.8334 9.99998C15.8334 6.77832 13.2217 4.16665 10 4.16665C6.77838 4.16665 4.16671 6.77832 4.16671 9.99998C4.16671 13.2216 6.77838 15.8333 10 15.8333C13.2217 15.8333 15.8334 13.2216 15.8334 9.99998Z" fill="white"/>
</g>
</g>
<defs>
<clipPath id="clip0_365_321">
<rect width="20" height="20" fill="white"/>
</clipPath>
</defs>
</svg>
